name C:\Users\r0593348\3dpredictsim\Results\MidTarsalJoint\Fal_s1_bCst_PF_Natali2010_ls150_MT_k400_d020_MTP_T5_ig24.mot
datacolumns 128
datarows 4
range 1.68763051 1.72138312
endheader
time	pelvis_tilt	pelvis_list	pelvis_rotation	pelvis_tx	pelvis_ty	pelvis_tz	hip_flexion_l	hip_adduction_l	hip_rotation_l	hip_flexion_r	hip_adduction_r	hip_rotation_r	knee_angle_l	knee_angle_r	ankle_angle_l	ankle_angle_r	subtalar_angle_l	subtalar_angle_r	mtj_angle_l	mtj_angle_r	mtp_angle_l	mtp_angle_r	lumbar_extension	lumbar_bending	lumbar_rotation	arm_flex_l	arm_add_l	arm_rot_l	arm_flex_r	arm_add_r	arm_rot_r	elbow_flex_l	elbow_flex_r	pro_sup_l	pro_sup_r	glut_med1_l/activation	glut_med2_l/activation	glut_med3_l/activation	glut_min1_l/activation	glut_min2_l/activation	glut_min3_l/activation	semimem_l/activation	semiten_l/activation	bifemlh_l/activation	bifemsh_l/activation	sar_l/activation	add_long_l/activation	add_brev_l/activation	add_mag1_l/activation	add_mag2_l/activation	add_mag3_l/activation	tfl_l/activation	pect_l/activation	grac_l/activation	glut_max1_l/activation	glut_max2_l/activation	glut_max3_l/activation	iliacus_l/activation	psoas_l/activation	quad_fem_l/activation	gem_l/activation	peri_l/activation	rect_fem_l/activation	vas_med_l/activation	vas_int_l/activation	vas_lat_l/activation	med_gas_l/activation	lat_gas_l/activation	soleus_l/activation	tib_post_l/activation	flex_dig_l/activation	flex_hal_l/activation	tib_ant_l/activation	per_brev_l/activation	per_long_l/activation	per_tert_l/activation	ext_dig_l/activation	ext_hal_l/activation	ercspn_l/activation	intobl_l/activation	extobl_l/activation	glut_med1_r/activation	glut_med2_r/activation	glut_med3_r/activation	glut_min1_r/activation	glut_min2_r/activation	glut_min3_r/activation	semimem_r/activation	semiten_r/activation	bifemlh_r/activation	bifemsh_r/activation	sar_r/activation	add_long_r/activation	add_brev_r/activation	add_mag1_r/activation	add_mag2_r/activation	add_mag3_r/activation	tfl_r/activation	pect_r/activation	grac_r/activation	glut_max1_r/activation	glut_max2_r/activation	glut_max3_r/activation	iliacus_r/activation	psoas_r/activation	quad_fem_r/activation	gem_r/activation	peri_r/activation	rect_fem_r/activation	vas_med_r/activation	vas_int_r/activation	vas_lat_r/activation	med_gas_r/activation	lat_gas_r/activation	soleus_r/activation	tib_post_r/activation	flex_dig_r/activation	flex_hal_r/activation	tib_ant_r/activation	per_brev_r/activation	per_long_r/activation	per_tert_r/activation	ext_dig_r/activation	ext_hal_r/activation	ercspn_r/activation	intobl_r/activation	extobl_r/activation	
          1.68763051	         -2.93017629	          2.12935002	         -5.14961038	          2.10953814	          0.91890885	          0.00160922	         29.39745670	          3.46792904	         -2.13283515	        -17.05632810	         -1.10334041	          6.53750102	        -11.64035523	         -7.38242138	          5.69109080	         -1.33066090	         -4.50123021	          8.38846824	         -0.01924799	          3.87175635	         -0.86491046	         13.46326178	         -2.02332751	         -0.30708293	          2.03463538	         -5.11406190	        -13.45256498	          5.43149268	          4.64398924	        -13.45325008	         15.62856684	         17.47206957	         34.59589598	         86.51662706	         86.51662706	          0.05937532	          0.05937530	          0.05000066	          0.05937578	          0.05937570	          0.05005665	          0.11874917	          0.05937597	          0.22560771	          0.05000088	          0.05000133	          0.13833265	          0.30390679	          0.12193971	          0.14343966	          0.10505983	          0.05000041	          0.08366026	          0.09908534	          0.05000184	          0.10409630	          0.15267337	          0.05031447	          0.05000078	          0.16477415	          0.26180076	          0.13200211	          0.05006259	          0.13032655	          0.12836670	          0.11561156	          0.05034988	          0.05005179	          0.05385061	          0.05000009	          0.05000133	          0.05000070	          0.53460480	          0.25752638	          0.16647382	          0.24494158	          0.46361175	          0.21315404	          0.05937573	          0.11391227	          0.10316924	          0.26404117	          0.09944748	          0.07758123	          0.29463845	          0.19734606	          0.11035224	          0.05000263	          0.05000073	          0.05000051	          0.05937862	          0.10587589	          0.08408593	          0.05001403	          0.05000380	          0.05000706	          0.05000204	          0.30665073	          0.08129410	          0.05001096	          0.05001610	          0.05000877	          0.05000665	          0.41512675	          0.64226756	          0.05000427	          0.05000243	          0.05328966	          0.23694161	          0.05001537	          0.05001445	          0.05001031	          0.29194356	          0.39717041	          0.32917806	          0.28022681	          0.27482142	          0.36052472	          0.05000015	          0.05714099	          0.11776086	          0.05000080	          0.05000022	          0.05000078	          0.05000010	          0.05000026	          0.05000035	
          1.69888138	         -2.92800093	          2.21355411	         -5.43673346	          2.12644526	          0.91793110	          0.00141939	         28.75812564	          3.79413640	         -1.89948142	        -16.98175282	         -1.39705851	          6.34481775	        -11.82570397	         -9.19966550	          5.04087596	         -1.89234151	         -4.87219243	          9.32701750	          0.00107202	          3.23697023	         -0.86151729	         14.95003566	         -1.82477162	         -0.50361319	          2.10009096	         -5.94858229	        -13.44992631	          5.20900487	          4.36847153	        -13.45863937	         15.94479475	         16.99772161	         35.76827974	         86.51662706	         86.51662706	          0.05000004	          0.05000014	          0.10263572	          0.05000014	          0.05000016	          0.05000024	          0.09999835	          0.05000073	          0.18998325	          0.05000037	          0.05003587	          0.11649004	          0.25616244	          0.30761521	          0.20981086	          0.11973958	          0.05000152	          0.07048263	          0.12626602	          0.05102216	          0.10596689	          0.12856651	          0.05000029	          0.05937871	          0.41944219	          0.22046121	          0.11115843	          0.05937806	          0.14015690	          0.14103724	          0.12153760	          0.05000048	          0.05936699	          0.05000008	          0.05937925	          0.05002949	          0.05937759	          0.45730060	          0.26760416	          0.20073384	          0.20626443	          0.42979523	          0.17949613	          0.05000005	          0.09592497	          0.08687832	          0.22234791	          0.08374429	          0.06533088	          0.24811403	          0.16618430	          0.09292719	          0.05000729	          0.05000153	          0.05000186	          0.05000271	          0.08915820	          0.16755448	          0.05017993	          0.05938714	          0.05930942	          0.05937570	          0.25822942	          0.07611667	          0.05004154	          0.05000718	          0.05000454	          0.05000561	          0.34957644	          0.59955570	          0.05000197	          0.05937352	          0.05937616	          0.19952754	          0.14140671	          0.13500684	          0.14504825	          0.24584423	          0.33445532	          0.28477462	          0.24721098	          0.23142767	          0.30360124	          0.05000012	          0.05000029	          0.13118841	          0.05000034	          0.05000011	          0.05000050	          0.05519033	          0.05984712	          0.05937486	
          1.71013225	         -2.92216812	          2.30141136	         -5.69397762	          2.14363915	          0.91702822	          0.00124409	         28.00632102	          4.04172192	         -1.64296014	        -16.83970535	         -1.69130354	          6.14447744	        -12.32886895	        -11.11725665	          4.50456177	         -2.59896289	         -5.26010306	         10.22649515	         -0.16089707	          2.47881999	         -0.89365697	         16.47666596	         -1.60619901	         -0.71249860	          2.15433559	         -6.81017776	        -13.45361171	          5.03817516	          4.02112749	        -13.46046669	         16.19790281	         16.57813329	         36.91128006	         86.51662706	         86.51662706	          0.22766302	          0.22751009	          0.28378516	          0.33598038	          0.21629637	          0.19720637	          0.09265688	          0.05796358	          0.15998468	          0.08369354	          0.05000302	          0.09809582	          0.21571333	          0.25904148	          0.17668110	          0.11710545	          0.05000123	          0.05937428	          0.10633231	          0.05000207	          0.12958289	          0.10826578	          0.05479930	          0.05000316	          0.35321032	          0.18564960	          0.20926659	          0.05000203	          0.11802561	          0.11876696	          0.10234636	          0.05000253	          0.05000212	          0.05135836	          0.05000310	          0.05000113	          0.05000252	          0.54109166	          0.32405258	          0.17055375	          0.32247710	          0.50139690	          0.15116652	          0.05905903	          0.11807680	          0.07315982	          0.32354640	          0.07052072	          0.05501499	          0.31360105	          0.13994323	          0.07825366	          0.05000407	          0.05000059	          0.05000049	          0.05000048	          0.07508053	          0.14109706	          0.05000426	          0.05001036	          0.05000382	          0.05000270	          0.24713163	          0.06410160	          0.05000233	          0.05001297	          0.05000714	          0.05000426	          0.29437697	          0.56996026	          0.05000098	          0.05000260	          0.05000100	          0.16802124	          0.11907996	          0.11369047	          0.12214583	          0.20702421	          0.28164319	          0.23980729	          0.20817539	          0.19488458	          0.25566158	          0.05000005	          0.09231076	          0.15142446	          0.05000033	          0.05000012	          0.05000036	          0.05000019	          0.05039698	          0.05000014	
          1.72138312	         -2.91490654	          2.38265081	         -5.91644944	          2.16091023	          0.91622768	          0.00104690	         27.20842282	          4.26967340	         -1.38730122	        -16.59339444	         -1.97524225	          5.95259071	        -12.79770008	        -13.17514025	          4.00085270	         -3.47551791	         -5.65031831	         11.09050979	         -0.13912649	          1.65992198	         -0.86148903	         17.95405406	         -1.39047328	         -0.92296876	          2.20030006	         -7.65337290	        -13.45790877	          4.91930923	          3.63750329	        -13.46762645	         16.41481201	         16.19393747	         38.00546411	         86.51662706	         86.51662706	          0.32145613	          0.31801779	          0.34731841	          0.28292788	          0.18214401	          0.17886263	          0.07918938	          0.08336116	          0.13472258	          0.07047914	          0.05000188	          0.08260611	          0.18165128	          0.21813825	          0.14880288	          0.15720532	          0.05000079	          0.05000368	          0.08954585	          0.20296656	          0.18165319	          0.15298311	          0.05000019	          0.05000021	          0.29743683	          0.15633480	          0.17622313	          0.05000016	          0.12198426	          0.14233770	          0.10042607	          0.05000007	          0.05000015	          0.05000002	          0.05000004	          0.05000027	          0.05000026	          0.59690108	          0.29621752	          0.16446168	          0.55475835	          0.53822984	          0.26726360	          0.07944633	          0.09943194	          0.06160754	          0.30621362	          0.05938522	          0.05000033	          0.26411107	          0.11784570	          0.06589714	          0.05000690	          0.05000067	          0.05000059	          0.05000054	          0.06322574	          0.14252429	          0.05000412	          0.05000441	          0.05000711	          0.05000334	          0.20811237	          0.05852848	          0.05000331	          0.05000692	          0.05000405	          0.05000287	          0.24789352	          0.52561649	          0.05000064	          0.05000235	          0.05000053	          0.14148991	          0.11978432	          0.13198470	          0.11807211	          0.17433405	          0.23717035	          0.20194052	          0.17530358	          0.16411165	          0.21529159	          0.05000082	          0.09077653	          0.15673798	          0.05000102	          0.10254810	          0.05000142	          0.07380484	          0.05000004	          0.05000011	
